<svg version="1.2" xmlns="http://www.w3.org/2000/svg" viewBox="0 0 341 173" width="341" height="173">
	<title>WistLogo-ai</title>
	<style>
		.s0 { fill: #0072bb } 
		.s1 { fill: #a31781 } 
	</style>
	<g id="katman 1">
		<g id="Layer 1">
			<g id="&lt;Group&gt;">
				<g id="&lt;Group&gt;">
					<g id="&lt;Group&gt;">
						<path id="&lt;Path&gt;" class="s0" d="m134.3 83.7l-2.1-1.1c-6.9-3.1-10.5-12.3-7.4-19l9.3-20.5c3-6.7 11-9.7 17.9-6.6l5.3 2.4c6.8 3.1 9.9 11.1 6.9 17.9l-9.3 20.4c-2.6 6.2-11.6 10.5-20.6 6.5z"/>
						<path id="&lt;Path&gt;" class="s0" d="m158.6 1.8c8.3-3.4 17.8 0.5 21.2 8.8 3.5 8.3-0.5 17.8-8.7 21.2-8.3 3.5-17.8-0.5-21.3-8.7-3.4-8.3 0.5-17.8 8.8-21.3z"/>
						<path id="&lt;Path&gt;" class="s1" d="m153.4 83.3c0 0-4.9 7.6-14.6 5.3-13.5-3.2-17-12-18.8-17.9l-13.5-29.8c-3.9-8.4-13.9-12-22.3-8.1-3.3 1.5-5.9 4-7.5 7q-0.7 1.3-1.2 2.6l-14.1 31.3-29.2-62.1c-3.9-8.4-13.9-12-22.3-8.1-8.4 4-12 14-8.1 22.4l43.8 93.1c3.9 8.4 13.9 12 22.3 8 3-1.4 5.4-3.6 7.1-6.2l0.1-0.2q0.9-1.6 1.5-3.3l14.4-30.5 15.1 32.2c3.9 8.4 13.9 12 22.3 8.1 4.6-2.2 7.7-6.1 9-10.6z"/>
					</g>
					<g id="&lt;Group&gt;">
						<path id="&lt;Path&gt;" class="s0" d="m244.1 98.4q-6.4 15.6-19.8 23.5-13.4 8-31.6 7.9-21.1 0-36.3-3.2c-3.3-0.6-4.4-4.2-2.3-7.5l5.9-9.3c1.7-2.7 4.9-4.2 7.6-3.6q14.7 3.4 30.5 3.4 8.2 0 13.3-3.1 5.1-3 6.6-6.3 1.6-3.5-1.5-5.7-3-2.1-11.5-3.9-17.3-3.1-24.4-10.4-7-7.3-0.8-22.6 12-29.2 50.4-29.2 18.4 0 33.1 3.2c3.2 0.7 4.3 4.2 2.2 7.5l-6 9.5c-1.7 2.7-4.9 4.2-7.5 3.6q-14.9-3.5-28.6-3.5-7.8 0-12.2 2.5-4.4 2.5-5.8 5.7-1.5 3.5 0.9 5.7 2.4 2.3 10.9 4.2 6.8 1.6 10.4 2.7 3.6 1 8.8 3.7 5.1 2.6 7.3 5.5 2.1 2.9 2.6 8.1 0.5 5.2-2.2 11.6z"/>
						<path id="&lt;Path&gt;" class="s0" d="m264.9 100l18.4-45c1.4-3.5-0.5-6.5-3.9-6.5-3.5 0-5.3-3.1-4-6.5l2.3-5.7c1-2.6 3.6-4.6 6.3-4.9l5.3-0.6c2.4-0.3 4.8-2 6-4.3l9.9-19.2c1.4-2.5 4.1-4.3 6.8-4.3h11.2c3.4 0 5.3 3 3.9 6.5l-5.8 14.3c-1.4 3.5 0.5 6.5 4 6.5h11.2c3.5 0 5.4 3.1 4 6.5l-2.8 6.7c-1.1 2.9-4.1 5-7 5h-14.4c-2.9 0-5.8 2.1-7 4.9l-17 42.1q-6.1 14.1 8.3 14 1.4 0.1 2.8-0.1c3.4-0.2 5.5 2.5 4.5 5.9l-2.3 8c-0.8 2.9-3.6 5.2-6.4 5.6q-7.2 1-15.7 0.9-16.6 0.1-20.8-7.1-4.1-7.1 2.2-22.7z"/>
					</g>
				</g>
				<g id="&lt;Group&gt;">
					<path id="&lt;Path&gt;" class="s1" d="m58.1 159.6l-4.9 12.5h-5.9l-3.1-20.6h5.9l1.5 14.8h0.1l5.1-14.8h5.2l1.2 14.8h0.1l5.4-14.8h5.6l-8.8 20.6h-5.9z"/>
					<path id="&lt;Compound Path&gt;" fill-rule="evenodd" class="s1" d="m85.1 171.9l0.4-2h-0.1q-1.1 1.1-2.8 1.7-1.6 0.7-3.3 0.7-7.4 0-5.9-10.6 0.6-4.7 2.9-7.6 2.3-3 6.3-3 3.4 0 5.4 2.3h0.1l1.2-2h4l-2.9 20.5zm-6.1-10.2q-0.9 6.3 3.1 6.3 2 0 3.8-1.3l1.4-9.9q-1.5-1.3-3.5-1.3-4 0-4.8 6.2z"/>
					<path id="&lt;Path&gt;" class="s1" d="m94 171.9l4-28.5h5.3l-4 28.5z"/>
					<path id="&lt;Path&gt;" class="s1" d="m102.7 171.9l4-28.5h5.3l-4 28.5z"/>
					<path id="&lt;Compound Path&gt;" fill-rule="evenodd" class="s1" d="m131.2 162.9h-13.1q-0.2 2.4 1 3.7 1.2 1.4 3.9 1.4 3.4 0 6.4-0.9l0.1 4.2q-3.6 1-7.9 1-5.6 0-7.7-2.7-2.1-2.8-1.4-7.9 1.5-10.6 12-10.6 4.3 0 6 1.9 1.7 1.8 1.6 4.7 0 1.9-0.9 5.2zm-7.6-7.7q-4 0-5 4.3h7.9q0.3-0.8 0.3-1.6 0.1-2.7-3.2-2.7z"/>
					<path id="&lt;Path&gt;" class="s1" d="m135.5 166.1l1.5-10.8h-2.7l0.4-3.4 2.9-0.4 1.4-5.7h4.6l-0.7 5.7h5.1l-0.6 3.8h-5.1l-1.3 9.9q-0.5 2.9 2.5 2.9 0.9 0 1.9-0.2l-0.1 4.1q-1.8 0.3-4.2 0.3-3.5 0-4.8-1.5-1.2-1.5-0.8-4.7z"/>
					<path id="&lt;Compound Path&gt;" class="s0" d="m158.5 151.5h5.3l-2.8 20.4h-5.3zm1-7.3h5.3l-0.8 5.6h-5.3z"/>
					<path id="&lt;Path&gt;" class="s0" d="m182 165.8q-0.4 3.2-2.8 4.9-2.4 1.6-6.1 1.6-5.4 0-9.2-1l1.6-4.2q3.7 1 7.5 1 1.8 0 2.7-0.7 0.9-0.6 1-1.3 0.1-0.7-0.7-1.2-0.7-0.4-2.6-0.8-3.8-0.6-5.6-2.1-1.9-1.6-1.5-4.8 0.9-6.1 8.9-6.1 4.7 0 8.4 1l-1.5 4.3q-3.9-1-7.2-1-1.6 0-2.4 0.5-0.8 0.5-0.9 1.2-0.1 0.7 0.5 1.2 0.7 0.5 2.5 0.9 1.5 0.3 2.4 0.5 0.8 0.2 2 0.8 1.2 0.5 1.8 1.1 0.6 0.7 1 1.7 0.4 1.1 0.2 2.5z"/>
					<path id="&lt;Path&gt;" class="s0" d="m186.5 166.1l1.5-10.8h-2.8l0.5-3.4 2.8-0.4 1.4-5.7h4.7l-0.8 5.7h5.1l-0.5 3.8h-5.1l-1.4 9.9q-0.5 2.9 2.6 2.9 0.8 0 1.8-0.2l-0.1 4.1q-1.8 0.3-4.2 0.3-3.5 0-4.7-1.5-1.3-1.5-0.8-4.7z"/>
					<path id="&lt;Compound Path&gt;" fill-rule="evenodd" class="s0" d="m210.6 171.9l0.3-2h-0.1q-1.1 1.1-2.7 1.7-1.7 0.7-3.3 0.7-7.5 0-6-10.6 0.7-4.7 2.9-7.6 2.3-3 6.3-3 3.4 0 5.4 2.3h0.1l1.2-2h4.1l-2.9 20.5zm-6.2-10.2q-0.9 6.3 3.1 6.3 2 0 3.8-1.3l1.4-9.9q-1.4-1.3-3.4-1.3-4.1 0-4.9 6.2z"/>
					<path id="&lt;Path&gt;" class="s0" d="m226.7 157.1l-2 14.8h-5.3l2.8-20.4h5.3l-0.3 2.7q3.4-3.1 7.1-3.1 3 0 4.3 1.8 1.3 1.9 0.9 5.1l-2 13.9h-5.3l1.8-12.7q0.5-3.7-2.7-3.7-1.9 0-4.6 1.6z"/>
					<path id="&lt;Compound Path&gt;" fill-rule="evenodd" class="s0" d="m250.3 143.4l-1.5 10.2h0.1q1.2-1.1 2.8-1.8 1.6-0.7 3.3-0.7 7.4 0 5.9 10.6-0.6 4.8-2.9 7.7-2.3 2.9-6.3 2.9-3.4 0-5.4-2.3h-0.1l-1.2 2.1h-4l4-28.7zm5.1 18.3q0.8-6.2-3.2-6.2-1.9 0-3.8 1.3l-1.4 9.9q1.4 1.3 3.5 1.3 4 0 4.9-6.3z"/>
					<path id="&lt;Path&gt;" class="s0" d="m276.2 166.4l2.1-14.9h5.3l-2.9 20.4h-5.3l0.4-2.6h-0.1q-3.3 3-7.1 3-3 0-4.3-1.8-1.3-1.8-0.8-5l1.9-14h5.3l-1.7 12.8q-0.6 3.7 2.7 3.7 1.8 0 4.5-1.6z"/>
					<path id="&lt;Path&gt;" class="s0" d="m284.2 171.9l3.9-28.5h5.3l-3.9 28.5z"/>
				</g>
			</g>
		</g>
	</g>
</svg>